name rise37.2698peak67.6939fall79.5734.mot
datacolumns 19
datarows 23
range 18.02993100000000 18.06661700000000
endheader
time	ground_force1_vx	ground_force1_vy	ground_force1_vz	ground_force1_px	ground_force1_py	ground_force1_pz	ground_force2_vx	ground_force2_vy	ground_force2_vz	ground_force2_px	ground_force2_py	ground_force2_pz	ground_torque1_x	ground_torque1_y	ground_torque1_z	ground_torque2_x	ground_torque2_y	ground_torque2_z	
18.02993100000000	-33.95610000000000	793.59539199999995	53.76828100000000	0.14237700000000	0.00000000000000	0.11361000000000	-12.88256100000000	44.52426900000000	8.52331900000000	0.35082800000000	0.00000000000000	-0.06202800000000	0.00000000000000	22.19518900000000	0.00000000000000	0.00000000000000	4.65854100000000	0.00000000000000	
18.03161200000000	-34.38816700000000	791.18266700000004	53.61781800000000	0.14159000000000	0.00000000000000	0.11353800000000	-14.02137000000000	50.61963000000000	9.44782100000000	0.35487200000000	0.00000000000000	-0.06229500000000	0.00000000000000	22.10335000000000	0.00000000000000	0.00000000000000	5.24384600000000	0.00000000000000	
18.03326600000000	-34.83803300000000	788.68345399999998	53.44745400000000	0.14081100000000	0.00000000000000	0.11346200000000	-14.96545100000000	56.58371700000000	10.28318400000000	0.35865800000000	0.00000000000000	-0.06255300000000	0.00000000000000	22.01267000000000	0.00000000000000	0.00000000000000	5.79453600000000	0.00000000000000	
18.03493700000000	-35.30594900000000	786.09781399999997	53.25708900000000	0.14003900000000	0.00000000000000	0.11338300000000	-15.69687300000000	62.35359200000000	11.01614600000000	0.36221100000000	0.00000000000000	-0.06280300000000	0.00000000000000	21.92327900000000	0.00000000000000	0.00000000000000	6.30153200000000	0.00000000000000	
18.03659700000000	-35.79211800000000	783.42575599999998	53.04666100000000	0.13927400000000	0.00000000000000	0.11330000000000	-16.20916200000000	67.89248400000000	11.63984500000000	0.36555200000000	0.00000000000000	-0.06304700000000	0.00000000000000	21.83529900000000	0.00000000000000	0.00000000000000	6.75901100000000	0.00000000000000	
18.03826200000000	-36.29668100000000	780.66723500000001	52.81615200000000	0.13851700000000	0.00000000000000	0.11321300000000	-16.50631100000000	73.18892099999999	12.15341500000000	0.36869600000000	0.00000000000000	-0.06328600000000	0.00000000000000	21.74883700000000	0.00000000000000	0.00000000000000	7.16434100000000	0.00000000000000	
18.03992800000000	-36.81972600000000	777.82214499999998	52.56558200000000	0.13776600000000	0.00000000000000	0.11312200000000	-16.60109100000000	78.25392600000001	12.56113900000000	0.37166100000000	0.00000000000000	-0.06352100000000	0.00000000000000	21.66399300000000	0.00000000000000	0.00000000000000	7.51775100000000	0.00000000000000	
18.04160200000000	-37.36127600000000	774.89031599999998	52.29501400000000	0.13702300000000	0.00000000000000	0.11302700000000	-16.51292900000000	83.11683700000000	12.87134000000000	0.37445700000000	0.00000000000000	-0.06375400000000	0.00000000000000	21.58085100000000	0.00000000000000	0.00000000000000	7.82183400000000	0.00000000000000	
18.04326600000000	-37.92129300000000	771.87150499999996	52.00454800000000	0.13628600000000	0.00000000000000	0.11292900000000	-16.26560100000000	87.82035200000000	13.09512100000000	0.37709600000000	0.00000000000000	-0.06398400000000	0.00000000000000	21.49948500000000	0.00000000000000	0.00000000000000	8.08092600000000	0.00000000000000	
18.04493400000000	-38.49967100000000	768.76539700000001	51.69432400000000	0.13555500000000	0.00000000000000	0.11282700000000	-15.88496500000000	92.41532900000000	13.24509900000000	0.37958900000000	0.00000000000000	-0.06421400000000	0.00000000000000	21.41995400000000	0.00000000000000	0.00000000000000	8.30045800000000	0.00000000000000	
18.04660200000000	-39.09623700000000	765.57159799999999	51.36452200000000	0.13483100000000	0.00000000000000	0.11272100000000	-15.39691000000000	96.95581300000001	13.33423400000000	0.38194300000000	0.00000000000000	-0.06444300000000	0.00000000000000	21.34230400000000	0.00000000000000	0.00000000000000	8.48632600000000	0.00000000000000	
18.04826400000000	-39.71074600000000	762.28963499999998	51.01535700000000	0.13411200000000	0.00000000000000	0.11261200000000	-14.82564100000000	101.49465300000000	13.37482800000000	0.38416600000000	0.00000000000000	-0.06467200000000	0.00000000000000	21.26656800000000	0.00000000000000	0.00000000000000	8.64433300000000	0.00000000000000	
18.04993500000000	-40.34288300000000	758.91895199999999	50.64708000000000	0.13339900000000	0.00000000000000	0.11249900000000	-14.19239000000000	106.07993600000000	13.37774600000000	0.38626400000000	0.00000000000000	-0.06490100000000	0.00000000000000	21.19276100000000	0.00000000000000	0.00000000000000	8.77972900000000	0.00000000000000	
18.05159800000000	-40.99225500000000	755.45890799999995	50.25997900000000	0.13269200000000	0.00000000000000	0.11238200000000	-13.51456300000000	110.75238400000001	13.35188000000000	0.38824500000000	0.00000000000000	-0.06513000000000	0.00000000000000	21.12088700000000	0.00000000000000	0.00000000000000	8.89688300000000	0.00000000000000	
18.05327000000000	-41.65839500000000	751.90877699999999	49.85437300000000	0.13198800000000	0.00000000000000	0.11226200000000	-12.80532700000000	115.54374199999999	13.30385400000000	0.39011200000000	0.00000000000000	-0.06536100000000	0.00000000000000	21.05093300000000	0.00000000000000	0.00000000000000	8.99907300000000	0.00000000000000	
18.05493200000000	-42.34075700000000	748.26774999999998	49.43061700000000	0.13129000000000	0.00000000000000	0.11213900000000	-12.07357000000000	120.47608900000000	13.23795200000000	0.39187200000000	0.00000000000000	-0.06559200000000	0.00000000000000	20.98287200000000	0.00000000000000	0.00000000000000	9.08840400000000	0.00000000000000	
18.05659900000000	-43.03871500000000	744.53492900000003	48.98909400000000	0.13059500000000	0.00000000000000	0.11201200000000	-11.32419300000000	125.56197500000000	13.15622700000000	0.39352800000000	0.00000000000000	-0.06582500000000	0.00000000000000	20.91666100000000	0.00000000000000	0.00000000000000	9.16582600000000	0.00000000000000	
18.05826700000000	-43.75156300000000	740.70933500000001	48.53021700000000	0.12990300000000	0.00000000000000	0.11188200000000	-10.55863400000000	130.80520100000001	13.05876400000000	0.39508400000000	0.00000000000000	-0.06605900000000	0.00000000000000	20.85224000000000	0.00000000000000	0.00000000000000	9.23124400000000	0.00000000000000	
18.05993300000000	-44.47851300000000	736.78990599999997	48.05442700000000	0.12921400000000	0.00000000000000	0.11174900000000	-9.77554500000000	136.20209100000000	12.94403200000000	0.39654500000000	0.00000000000000	-0.06629400000000	0.00000000000000	20.78953500000000	0.00000000000000	0.00000000000000	9.28368400000000	0.00000000000000	
18.06160800000000	-45.21869600000000	732.77549999999997	47.56219300000000	0.12852800000000	0.00000000000000	0.11161300000000	-8.97155100000000	141.74304500000000	12.80929900000000	0.39791300000000	0.00000000000000	-0.06653100000000	0.00000000000000	20.72845700000000	0.00000000000000	0.00000000000000	9.32150500000000	0.00000000000000	
18.06326300000000	-45.97115800000000	728.66489799999999	47.05400500000000	0.12784300000000	0.00000000000000	0.11147400000000	-8.14201600000000	147.41422000000000	12.65105200000000	0.39919200000000	0.00000000000000	-0.06676800000000	0.00000000000000	20.66890000000000	0.00000000000000	0.00000000000000	9.34261600000000	0.00000000000000	
18.06493300000000	-46.73486300000000	724.45681000000002	46.53037900000000	0.12716000000000	0.00000000000000	0.11133200000000	-7.28174700000000	153.19919200000001	12.46541000000000	0.40038400000000	0.00000000000000	-0.06700700000000	0.00000000000000	20.61074400000000	0.00000000000000	0.00000000000000	9.34470000000000	0.00000000000000	
18.06661700000000	-47.50869200000000	720.14987499999995	45.99185000000000	0.12647800000000	0.00000000000000	0.11118800000000	-6.38561500000000	159.08046700000000	12.24847400000000	0.40149300000000	0.00000000000000	-0.06724800000000	0.00000000000000	20.55385300000000	0.00000000000000	0.00000000000000	9.32541400000000	0.00000000000000	
